<svg xmlns="http://www.w3.org/2000/svg" version="1.1" xmlns:xlink="http://www.w3.org/1999/xlink" xmlns:svgjs="http://svgjs.dev/svgjs" width="128" height="128" viewBox="0 0 128 128"><g transform="matrix(0.8046875,0,0,0.8046875,12.333870967741937,12.333870967741937)"><svg viewBox="0 0 155 155" data-background-color="#6936f5" preserveAspectRatio="xMidYMid meet" height="128" width="128" xmlns="http://www.w3.org/2000/svg" xmlns:xlink="http://www.w3.org/1999/xlink"><g id="tight-bounds" transform="matrix(1,0,0,1,0.25,0.25)"><svg viewBox="0 0 154.5 154.5" height="154.5" width="154.5"><g><svg></svg></g><g><svg viewBox="0 0 154.5 154.5" height="154.5" width="154.5"><g transform="matrix(1,0,0,1,49.60605459965929,47.746371)"><svg viewBox="0 0 55.287890800681424 59.00725799999999" height="59.00725799999999" width="55.287890800681424"><g><svg viewBox="0 0 55.287890800681424 59.00725799999999" height="59.00725799999999" width="55.287890800681424"><g><svg viewBox="0 0 55.287890800681424 59.00725799999999" height="59.00725799999999" width="55.287890800681424"><g id="textblocktransform"><svg viewBox="0 0 55.287890800681424 59.00725799999999" height="59.00725799999999" width="55.287890800681424" id="textblock"><g><svg viewBox="0 0 55.287890800681424 59.00725799999999" height="59.00725799999999" width="55.287890800681424"><g transform="matrix(1,0,0,1,0,0)"><svg width="55.287890800681424" viewBox="1.51 -28.66 26.86 28.66" height="59.00725799999999" data-palette-color="#ffffff"><path d="M17.43 0L1.81 0 1.66-2.78 4.64-3.71Q4.79-3.91 4.86-5.08 4.93-6.25 4.98-7.91 5.03-9.57 5.03-11.18L5.03-11.18 5.08-17.68Q5.08-19.24 5.03-20.9 4.98-22.56 4.91-23.8 4.83-25.05 4.69-25.24L4.69-25.24 1.51-25.88 1.66-28.66 15.33-28.66Q22.07-28.66 25.22-26.46 28.37-24.27 28.37-20.17L28.37-20.17Q28.37-17.48 26.95-15.23 25.54-12.99 22.68-11.65 19.82-10.3 15.48-10.3L15.48-10.3Q14.84-10.3 14.06-10.4 13.28-10.5 12.6-10.64L12.6-10.64 12.6-14.45Q12.84-14.31 13.62-14.14 14.4-13.96 15.58-13.96L15.58-13.96Q17.58-13.96 18.63-15.43 19.68-16.89 19.68-19.48L19.68-19.48Q19.68-22.66 18.21-24.12 16.75-25.59 13.87-25.59L13.87-25.59 13.28-25.59Q13.28-25.15 13.26-24.29 13.23-23.44 13.23-21.85 13.23-20.26 13.23-17.68L13.23-17.68 13.28-11.18Q13.28-9.57 13.35-7.91 13.43-6.25 13.5-5.08 13.57-3.91 13.62-3.66L13.62-3.66 17.58-2.88 17.43 0Z" opacity="1" transform="matrix(1,0,0,1,0,0)" fill="#ffffff" class="undefined-text-0" data-fill-palette-color="primary" id="text-0"></path></svg></g></svg></g></svg></g></svg></g></svg></g></svg></g><path d="M49.606 41.746L49.606 1 104.894 1 104.894 41.746 99.573 41.746 99.573 6.321 54.927 6.321 54.927 41.746 49.606 41.746M49.606 112.754L49.606 153.5 104.894 153.5 104.894 112.754 99.573 112.754 99.573 148.179 54.927 148.179 54.927 112.754 49.606 112.754" fill="#ffffff" stroke="transparent" data-fill-palette-color="primary"></path></svg></g><defs></defs></svg><rect width="154.5" height="154.5" fill="none" stroke="none" visibility="hidden"></rect></g></svg></g></svg>